<svg width="32" height="32" viewBox="0 0 32 32" fill="none" xmlns="http://www.w3.org/2000/svg">
<rect width="32" height="32" rx="8" fill="#D7D7D7"/>
<path d="M21.2773 10.8438L19.9648 12.1836C18.8984 11.2266 17.5039 10.625 16 10.625C13.4023 10.625 11.1328 12.293 10.3398 14.7539C10.2031 15.2188 10.4492 15.7109 10.9141 15.8477C11.3789 15.9844 11.8711 15.7383 12.0078 15.2734C12.5547 13.5508 14.168 12.375 16 12.375C17.0117 12.375 17.9961 12.7852 18.7344 13.4141L17.5039 14.6172C17.0664 15.082 17.3672 15.875 18.0234 15.875H22.043C22.3164 15.875 22.5625 15.6562 22.5625 15.3555V11.3906C22.5625 10.707 21.7422 10.3789 21.2773 10.8438ZM21.0586 17.6797C20.5938 17.543 20.1016 17.7891 19.9648 18.2539C19.418 19.9766 17.8047 21.125 16 21.125C14.9609 21.125 14.0039 20.7422 13.2383 20.1133L14.4688 18.8828C14.9062 18.4453 14.6055 17.6523 13.9492 17.625H9.92969C9.65625 17.6523 9.4375 17.8711 9.4375 18.1719V22.1367C9.4375 22.8203 10.2305 23.1484 10.6953 22.6836L12.0078 21.3438C13.0742 22.3008 14.4688 22.875 15.9727 22.875C18.543 22.875 20.8125 21.2344 21.6055 18.7734C21.7695 18.3086 21.5234 17.8164 21.0586 17.6797Z" fill="white"/>
</svg>
