<svg width="32" height="32" viewBox="0 0 32 32" fill="none" xmlns="http://www.w3.org/2000/svg">
<rect width="32" height="32" rx="8" fill="#D7D7D7"/>
<path d="M11.1875 12.375C11.1875 11.9102 11.5703 11.5 12.0625 11.5H13.8125C14.2773 11.5 14.6875 11.9102 14.6875 12.375H17.3125C17.3125 11.9102 17.6953 11.5 18.1875 11.5H19.9375C20.4023 11.5 20.8125 11.9102 20.8125 12.375H21.25C22.207 12.375 23 13.168 23 14.125V20.25C23 21.2344 22.207 22 21.25 22H10.75C9.76562 22 9 21.2344 9 20.25V14.125C9 13.168 9.76562 12.375 10.75 12.375H11.1875ZM19.5 15C19.5 14.7812 19.2812 14.5625 19.0625 14.5625C18.8164 14.5625 18.625 14.7812 18.625 15V15.875H17.75C17.5039 15.875 17.3125 16.0938 17.3125 16.3125C17.3125 16.5586 17.5039 16.75 17.75 16.75H18.625V17.625C18.625 17.8711 18.8164 18.0625 19.0625 18.0625C19.2812 18.0625 19.5 17.8711 19.5 17.625V16.75H20.375C20.5938 16.75 20.8125 16.5586 20.8125 16.3125C20.8125 16.0938 20.5938 15.875 20.375 15.875H19.5V15ZM11.625 16.75H14.25C14.4688 16.75 14.6875 16.5586 14.6875 16.3125C14.6875 16.0938 14.4688 15.875 14.25 15.875H11.625C11.3789 15.875 11.1875 16.0938 11.1875 16.3125C11.1875 16.5586 11.3789 16.75 11.625 16.75Z" fill="white"/>
</svg>
