<svg width="32" height="32" viewBox="0 0 32 32" fill="none" xmlns="http://www.w3.org/2000/svg">
<rect width="32" height="32" rx="8" fill="#D7D7D7"/>
<path d="M12.375 20.125H10.625C10.1328 20.125 9.75 19.7422 9.75 19.25V12.25C9.75 11.7852 10.1328 11.375 10.625 11.375H12.375C12.8398 11.375 13.25 10.9922 13.25 10.5C13.25 10.0352 12.8398 9.625 12.375 9.625H10.625C9.14844 9.625 8 10.8008 8 12.25V19.25C8 20.7266 9.14844 21.875 10.625 21.875H12.375C12.8398 21.875 13.25 21.4922 13.25 21C13.25 20.5352 12.8398 20.125 12.375 20.125ZM21.7266 15.1484L18.2266 11.6484C17.8984 11.293 17.3242 11.293 16.9961 11.6484C16.6406 11.9766 16.6406 12.5508 16.9961 12.8789L18.9922 14.875H13.25C12.7578 14.875 12.375 15.2852 12.375 15.75C12.375 16.2422 12.7578 16.625 13.25 16.625H18.9922L16.9961 18.6484C16.6406 18.9766 16.6406 19.5508 16.9961 19.8789C17.3242 20.2344 17.8984 20.2344 18.2266 19.8789L21.7266 16.3789C22.082 16.0508 22.082 15.4766 21.7266 15.1484Z" fill="white"/>
</svg>
