<svg width="32" height="32" viewBox="0 0 32 32" fill="none" xmlns="http://www.w3.org/2000/svg">
<rect width="32" height="32" rx="8" fill="#D7D7D7"/>
<path d="M22.5352 13.3164C22.6445 13.5625 22.5625 13.8086 22.3711 14L21.1953 15.0664C21.2227 15.2852 21.25 15.5312 21.25 15.75C21.25 15.9961 21.2227 16.2422 21.1953 16.4609L22.3711 17.5273C22.5625 17.7188 22.6445 17.9648 22.5352 18.2109C22.4258 18.5391 22.2891 18.8398 22.125 19.1406L21.9883 19.3594C21.7969 19.6602 21.6055 19.9609 21.3867 20.2344C21.2227 20.4258 20.9492 20.4805 20.7031 20.3984L19.1992 19.9336C18.8164 20.207 18.4062 20.4258 17.9961 20.6172L17.6406 22.1758C17.5859 22.4219 17.3945 22.6133 17.1484 22.668C16.7656 22.7227 16.3828 22.75 15.9727 22.75C15.5898 22.75 15.207 22.7227 14.8242 22.668C14.5781 22.6133 14.3867 22.4219 14.332 22.1758L13.9766 20.6172C13.5664 20.4258 13.1562 20.207 12.7734 19.9336L11.2695 20.3984C11.0234 20.4805 10.75 20.4258 10.5859 20.2344C10.3672 19.9609 10.1758 19.6602 9.98438 19.3594L9.84766 19.1406C9.68359 18.8398 9.54688 18.5391 9.4375 18.2109C9.32812 17.9648 9.41016 17.7188 9.60156 17.5273L10.7773 16.4609C10.75 16.2422 10.75 15.9961 10.75 15.75C10.75 15.5312 10.75 15.2852 10.7773 15.0664L9.60156 14C9.41016 13.8086 9.32812 13.5625 9.4375 13.3164C9.54688 12.9883 9.68359 12.6875 9.84766 12.3867L9.98438 12.168C10.1758 11.8672 10.3672 11.5664 10.5859 11.293C10.75 11.1016 11.0234 11.0469 11.2695 11.1289L12.7734 11.5938C13.1562 11.3203 13.5664 11.0742 13.9766 10.9102L14.332 9.35156C14.3867 9.10547 14.5781 8.91406 14.8242 8.85938C15.207 8.80469 15.5898 8.75 16 8.75C16.3828 8.75 16.7656 8.80469 17.1484 8.85938C17.3945 8.91406 17.5859 9.10547 17.6406 9.35156L17.9961 10.9102C18.4062 11.0742 18.8164 11.3203 19.1992 11.5938L20.7031 11.1289C20.9492 11.0469 21.2227 11.1016 21.3867 11.293C21.6055 11.5664 21.7969 11.8672 21.9883 12.168L22.125 12.3867C22.2891 12.6875 22.4258 12.9883 22.5352 13.3164ZM16 17.9375C17.2031 17.9375 18.1875 16.9805 18.1875 15.75C18.1875 14.5469 17.2031 13.5625 16 13.5625C14.7695 13.5625 13.8125 14.5469 13.8125 15.75C13.8125 16.9805 14.7695 17.9375 16 17.9375Z" fill="white"/>
</svg>
