<svg width="32" height="32" viewBox="0 0 32 32" fill="none" xmlns="http://www.w3.org/2000/svg">
<rect width="32" height="32" rx="8" fill="#D7D7D7"/>
<path d="M20.1875 8.75C20.8984 8.75 21.5 9.35156 21.5 10.0625V21.4375C21.5 22.1758 20.8984 22.75 20.1875 22.75H17.5625V20.5625C17.5625 19.8516 16.9609 19.25 16.25 19.25C15.5117 19.25 14.9375 19.8516 14.9375 20.5625V22.75H12.3125C11.5742 22.75 11 22.1758 11 21.4375V10.0625C11 9.35156 11.5742 8.75 12.3125 8.75H20.1875ZM12.75 16.1875C12.75 16.4336 12.9414 16.625 13.1875 16.625H14.0625C14.2812 16.625 14.5 16.4336 14.5 16.1875V15.3125C14.5 15.0938 14.2812 14.875 14.0625 14.875H13.1875C12.9414 14.875 12.75 15.0938 12.75 15.3125V16.1875ZM15.8125 14.875C15.5664 14.875 15.375 15.0938 15.375 15.3125V16.1875C15.375 16.4336 15.5664 16.625 15.8125 16.625H16.6875C16.9062 16.625 17.125 16.4336 17.125 16.1875V15.3125C17.125 15.0938 16.9062 14.875 16.6875 14.875H15.8125ZM18 16.1875C18 16.4336 18.1914 16.625 18.4375 16.625H19.3125C19.5312 16.625 19.75 16.4336 19.75 16.1875V15.3125C19.75 15.0938 19.5312 14.875 19.3125 14.875H18.4375C18.1914 14.875 18 15.0938 18 15.3125V16.1875ZM13.1875 11.375C12.9414 11.375 12.75 11.5938 12.75 11.8125V12.6875C12.75 12.9336 12.9414 13.125 13.1875 13.125H14.0625C14.2812 13.125 14.5 12.9336 14.5 12.6875V11.8125C14.5 11.5938 14.2812 11.375 14.0625 11.375H13.1875ZM15.375 12.6875C15.375 12.9336 15.5664 13.125 15.8125 13.125H16.6875C16.9062 13.125 17.125 12.9336 17.125 12.6875V11.8125C17.125 11.5938 16.9062 11.375 16.6875 11.375H15.8125C15.5664 11.375 15.375 11.5938 15.375 11.8125V12.6875ZM18.4375 11.375C18.1914 11.375 18 11.5938 18 11.8125V12.6875C18 12.9336 18.1914 13.125 18.4375 13.125H19.3125C19.5312 13.125 19.75 12.9336 19.75 12.6875V11.8125C19.75 11.5938 19.5312 11.375 19.3125 11.375H18.4375Z" fill="white"/>
</svg>
