<svg width="32" height="32" viewBox="0 0 32 32" fill="none" xmlns="http://www.w3.org/2000/svg">
<rect width="32" height="32" rx="8" fill="#D7D7D7"/>
<path d="M15.7227 18.5C17.3086 18.5 18.5664 17.2422 18.5664 15.6562C18.5664 14.0977 17.2812 12.8125 15.7227 12.8125C14.1641 12.8125 12.9062 14.0977 12.9062 15.6562C12.8789 17.2422 14.1641 18.5 15.7227 18.5ZM17.0898 19.375H14.3828C12.2227 19.375 10.5 21.0156 10.5 23.0391C10.5 23.4492 10.8281 23.75 11.2656 23.75H20.207C20.6445 23.75 21 23.4492 21 23.0391C21 21.0156 19.25 19.375 17.0898 19.375ZM21 14.125C22.2031 14.125 23.1875 13.168 23.1875 11.9375C23.1875 10.7344 22.2031 9.75 21 9.75C19.7695 9.75 18.8125 10.7344 18.8125 11.9375C18.8125 13.168 19.7695 14.125 21 14.125ZM12.0039 15.6562C12.0039 15.5195 12.0312 15.3828 12.0586 15.2461C11.7578 15.082 11.4297 15 11.0742 15H9.40625C8.06641 15 7 16.1484 7 17.5703C7 17.8438 7.19141 18.0625 7.46484 18.0625H12.9336C12.3594 17.4336 12.0039 16.5859 12.0039 15.6562ZM10.5 14.125C11.7031 14.125 12.6875 13.168 12.6875 11.9375C12.6875 10.7344 11.7031 9.75 10.5 9.75C9.26953 9.75 8.3125 10.7344 8.3125 11.9375C8.3125 13.168 9.26953 14.125 10.5 14.125ZM22.0664 15H20.3984C20.043 15 19.7148 15.1094 19.4141 15.2461C19.4141 15.3828 19.4414 15.5195 19.4414 15.6562C19.4414 16.5859 19.1133 17.4336 18.5391 18.0625H24.0078C24.2812 18.0625 24.5 17.8438 24.5 17.5703C24.5 16.1484 23.4062 15 22.0664 15Z" fill="white"/>
</svg>
