<svg width="29" height="29" viewBox="0 0 29 29" fill="none" xmlns="http://www.w3.org/2000/svg">
<g filter="url(#filter0_d_66_2159)">
<rect width="29" height="29" rx="4.64" fill="#00AEE8"/>
<path d="M15.2267 14.1098H17.3893C17.6403 14.1098 17.8721 14.2835 17.9493 14.5153C18.0458 14.7663 17.9879 15.0366 17.7948 15.2104L12.8517 19.5356C12.62 19.7094 12.311 19.7287 12.0793 19.5549C11.8476 19.4005 11.7511 19.0915 11.8669 18.8212L13.3537 15.3455H11.1911C10.9401 15.3455 10.7084 15.1911 10.6311 14.9594C10.5346 14.7083 10.5925 14.438 10.7856 14.2642L15.7287 9.939C15.9605 9.76522 16.2694 9.74591 16.5011 9.91969C16.7328 10.0742 16.8294 10.3831 16.7135 10.6534L15.2267 14.1098Z" fill="white"/>
</g>
<defs>
<filter id="filter0_d_66_2159" x="-1.16" y="-1.16" width="31.32" height="31.32" filterUnits="userSpaceOnUse" color-interpolation-filters="sRGB">
<feFlood flood-opacity="0" result="BackgroundImageFix"/>
<feColorMatrix in="SourceAlpha" type="matrix" values="0 0 0 0 0 0 0 0 0 0 0 0 0 0 0 0 0 0 127 0" result="hardAlpha"/>
<feOffset/>
<feGaussianBlur stdDeviation="0.58"/>
<feColorMatrix type="matrix" values="0 0 0 0 0 0 0 0 0 0 0 0 0 0 0 0 0 0 0.08 0"/>
<feBlend mode="normal" in2="BackgroundImageFix" result="effect1_dropShadow_66_2159"/>
<feBlend mode="normal" in="SourceGraphic" in2="effect1_dropShadow_66_2159" result="shape"/>
</filter>
</defs>
</svg>
